PathFileType	4	(X/Y/Z)	TVC_20_BWA6_walk_RCNL2025.trc
DataRate	CameraRate	NumFrames	NumMarkers	Units	OrigDataRate	OrigDataStartFrame	OrigNumFrames
100	100	5	27	mm	100	90	238
Frame#	Time	R_Shoulder			L_Shoulder			C7			J_Notch			R_Elbow			L_Elbow			R_Wrist			L_Wrist			R_Asis			L_Asis			R_Psis			L_Psis			Sacral			Thoracic			Sternum			R_Thigh_Lateral			R_Knee_Lateral			R_Shank_Lateral			R_Ankle_Lateral			R_Heel			R_Toe			L_Thigh_Lateral			L_Knee_Lateral			L_Shank_Lateral			L_Ankle_Lateral			L_Heel			L_Toe		
		X1	Y1	Z1	X2	Y2	Z2	X3	Y3	Z3	X4	Y4	Z4	X5	Y5	Z5	X6	Y6	Z6	X7	Y7	Z7	X8	Y8	Z8	X9	Y9	Z9	X10	Y10	Z10	X11	Y11	Z11	X12	Y12	Z12	X13	Y13	Z13	X14	Y14	Z14	X15	Y15	Z15	X16	Y16	Z16	X17	Y17	Z17	X18	Y18	Z18	X19	Y19	Z19	X20	Y20	Z20	X21	Y21	Z21	X22	Y22	Z22	X23	Y23	Z23	X24	Y24	Z24	X25	Y25	Z25	X26	Y26	Z26	X27	Y27	Z27
90	0.89000000	-84.849991	1381.141846	86.415886	-139.000885	1413.770874	-274.085358	-134.307831	1449.663696	-77.004326	-22.862417	1313.498779	-100.539734	-127.949570	1077.569214	195.452164	-253.268250	1127.334961	-382.067230	63.314264	909.560638	140.419247	-157.977173	883.754242	-402.118439	-96.275856	990.630310	38.679897	-82.164879	997.926880	-240.146790	-243.481491	997.600525	-63.457264	-251.482147	984.662231	-153.890945	-247.481819	991.131378	-108.674105	-257.389496	1230.989990	-97.422020	-18.085419	1170.761841	-112.264275	-172.994705	656.258301	79.927864	-215.053192	469.782318	-15.019057	-295.700775	303.020203	29.615555	-337.027740	79.720825	-69.641113	-382.433350	62.324661	-123.329185	-192.458862	34.689381	-77.395607	-2.732157	654.267334	-313.458527	75.375427	511.670715	-237.281158	84.094887	329.819641	-294.662628	105.031975	85.588463	-217.450485	55.961224	69.359489	-179.006592	240.750000	70.912712	-182.515930
91	0.90000000	-71.634438	1378.571899	86.597992	-124.965164	1411.088867	-274.020477	-120.663391	1446.966553	-76.914619	-9.200724	1310.557007	-100.118767	-113.326920	1074.979004	195.977921	-241.812988	1125.489746	-381.342346	78.576672	907.725464	140.337025	-148.286430	881.203156	-401.087601	-84.678169	988.140930	39.564766	-67.145546	994.813843	-239.284454	-230.491074	994.957825	-64.663834	-237.447159	981.698364	-155.059479	-233.969116	988.328094	-109.861656	-243.884705	1228.513916	-98.357086	-4.581056	1167.745239	-111.351692	-164.194550	654.592163	80.346497	-208.157104	468.881561	-14.945971	-291.263611	303.092926	28.924057	-336.307953	80.592018	-70.673294	-381.692352	63.738564	-124.696846	-192.349945	34.686047	-77.608353	8.591659	648.959961	-312.144318	89.331322	509.071228	-235.085251	105.292427	327.992462	-292.120758	140.580200	85.286438	-213.430511	92.500198	67.087242	-174.627808	277.684113	76.565712	-178.553177
92	0.91000000	-58.352013	1375.956909	86.706459	-110.838898	1408.379028	-274.034393	-106.952187	1444.248413	-76.899689	4.561703	1307.616821	-99.758926	-98.679077	1072.320923	196.377075	-230.195496	1123.591553	-380.700684	93.754204	905.666046	140.322937	-138.283188	878.658081	-400.058929	-72.986267	985.663513	40.454773	-51.923309	991.666626	-238.386902	-217.312973	992.309082	-65.936798	-223.207275	978.720215	-156.303391	-220.260124	985.514648	-111.120094	-230.253113	1225.978760	-99.367783	9.062666	1164.740356	-110.492653	-155.226410	653.005554	80.711174	-200.792877	467.966400	-14.783586	-286.596161	303.303528	28.312588	-335.505829	81.643913	-71.570847	-380.936584	65.412682	-125.867149	-192.228302	34.706062	-77.808037	20.448711	643.611389	-310.982574	103.209251	506.359070	-232.839508	125.293579	326.207397	-289.411469	173.559006	85.442970	-209.221222	126.604233	65.484741	-169.906036	311.963806	82.377106	-174.895660
93	0.92000000	-45.000046	1373.353760	86.738945	-96.602982	1405.678101	-274.135071	-93.165344	1441.558105	-76.969841	18.435980	1304.732056	-99.461845	-84.031807	1069.651367	196.641632	-218.342987	1121.657837	-380.161560	108.819450	903.439972	140.382122	-127.933590	876.118073	-399.044510	-61.142639	983.233154	41.339756	-36.505119	988.551941	-237.461945	-203.927383	989.700195	-67.240746	-208.757370	975.783997	-157.588791	-206.342377	982.742096	-112.414768	-216.484070	1223.428345	-100.436974	22.865133	1161.802734	-109.690765	-146.179459	651.564514	81.051384	-193.049545	467.047394	-14.489058	-281.786194	303.685089	27.870628	-334.639862	82.900024	-72.234665	-380.201538	67.376549	-126.715027	-192.103622	34.747990	-77.967995	32.938908	638.494324	-309.941833	117.129860	503.642914	-230.540878	144.106613	324.395660	-286.530701	203.636169	85.772171	-204.843201	157.887756	64.303139	-164.900604	343.224365	87.964760	-171.504211
94	0.93000000	-31.575891	1370.818481	86.694481	-82.239708	1403.022095	-274.328186	-79.294838	1438.943970	-77.133209	32.431629	1301.955078	-99.227791	-69.414268	1067.027344	196.765945	-206.179810	1119.703979	-379.743011	123.744713	901.106873	140.519321	-117.199768	873.582581	-398.056671	-49.086040	980.882141	42.206558	-20.903042	985.534302	-236.521423	-190.318588	987.175049	-68.537697	-194.097458	972.944397	-158.878372	-192.208023	980.059723	-113.708035	-202.569504	1220.906494	-101.546326	36.843388	1158.986328	-108.949966	-137.107239	650.331726	81.419441	-184.980484	466.133850	-14.020935	-276.840546	304.246521	27.682461	-333.715942	84.382286	-72.574760	-379.508331	69.664062	-127.130295	-191.979080	34.809834	-78.067635	45.985218	633.784912	-308.896423	131.206909	501.018738	-228.194946	161.787155	322.480835	-283.481323	230.553497	85.993385	-200.324951	186.026337	63.306084	-159.689468	371.152618	92.886452	-168.284348
